HIERARCHY
ROOT Hips
{
	OFFSET 151.697800 93.143646 -72.043053
	CHANNELS 6 Xposition Yposition Zposition Zrotation Yrotation Xrotation 
	JOINT LeftUpLeg
	{
		OFFSET 0.103458 1.857831 10.548505
		CHANNELS 3 Zrotation Yrotation Xrotation
		JOINT LeftLeg
		{
			OFFSET 43.500000 -0.000031 0.000002
			CHANNELS 3 Zrotation Yrotation Xrotation
			JOINT LeftFoot
			{
				OFFSET 42.372200 0.000023 0.000003
				CHANNELS 3 Zrotation Yrotation Xrotation
				JOINT LeftToe
				{
					OFFSET 17.299997 -0.000001 -0.000010
					CHANNELS 3 Zrotation Yrotation Xrotation
					End Site
					{
						OFFSET 0.000000 0.000000 0.000000
					}
				}
			}
		}
	}
	JOINT RightUpLeg
	{
		OFFSET 0.103457 1.857828 -10.548510
		CHANNELS 3 Zrotation Yrotation Xrotation
		JOINT RightLeg
		{
			OFFSET 43.500046 -0.000015 0.000002
			CHANNELS 3 Zrotation Yrotation Xrotation
			JOINT RightFoot
			{
				OFFSET 42.372261 -0.000008 0.000023
				CHANNELS 3 Zrotation Yrotation Xrotation
				JOINT RightToe
				{
					OFFSET 17.299990 -0.000007 -0.000002
					CHANNELS 3 Zrotation Yrotation Xrotation
					End Site
					{
						OFFSET 0.000000 0.000000 0.000000
					}
				}
			}
		}
	}
	JOINT Spine
	{
		OFFSET 6.901967 -2.603726 -0.000001
		CHANNELS 3 Zrotation Yrotation Xrotation
		JOINT Spine1
		{
			OFFSET 12.588100 -0.000009 -0.000003
			CHANNELS 3 Zrotation Yrotation Xrotation
			JOINT Spine2
			{
				OFFSET 12.343202 0.000008 0.000008
				CHANNELS 3 Zrotation Yrotation Xrotation
				JOINT Neck
				{
					OFFSET 25.832897 -0.000015 -0.000004
					CHANNELS 3 Zrotation Yrotation Xrotation
					JOINT Head
					{
						OFFSET 11.766609 0.000013 -0.000006
						CHANNELS 3 Zrotation Yrotation Xrotation
						End Site
						{
							OFFSET 0.000000 0.000000 0.000000
						}
					}
				}
				JOINT LeftShoulder
				{
					OFFSET 19.745911 -1.480373 6.000098
					CHANNELS 3 Zrotation Yrotation Xrotation
					JOINT LeftArm
					{
						OFFSET 11.284123 -0.000007 -0.000032
						CHANNELS 3 Zrotation Yrotation Xrotation
						JOINT LeftForeArm
						{
							OFFSET 33.000050 0.000005 0.000031
							CHANNELS 3 Zrotation Yrotation Xrotation
							JOINT LeftHand
							{
								OFFSET 25.200008 0.000017 0.000013
								CHANNELS 3 Zrotation Yrotation Xrotation
								End Site
								{
									OFFSET 0.000000 0.000000 0.000000
								}
							}
						}
					}
				}
				JOINT RightShoulder
				{
					OFFSET 19.746092 -1.480379 -6.000077
					CHANNELS 3 Zrotation Yrotation Xrotation
					JOINT RightArm
					{
						OFFSET 11.284136 -0.000017 -0.000017
						CHANNELS 3 Zrotation Yrotation Xrotation
						JOINT RightForeArm
						{
							OFFSET 33.000099 0.000019 0.000015
							CHANNELS 3 Zrotation Yrotation Xrotation
							JOINT RightHand
							{
								OFFSET 25.199780 0.000140 0.000408
								CHANNELS 3 Zrotation Yrotation Xrotation
								End Site
								{
									OFFSET 0.000000 0.000000 0.000000
								}
							}
						}
					}
				}
			}
		}
	}
}
MOTION
Frames: 10
Frame Time: 0.033333
151.6978 93.143646 72.043053 90.062697 -4.043022 -87.981012 -175.026644 -3.189893 179.422909 -9.250847 -3.103838 -9.976429 76.637578 6.204524 -3.737153 21.454555 0.003097 1.7e-05 -176.849457 3.010301 176.550609 -9.181385 2.518289 4.261499 72.763194 -2.453744 2.216523 21.454555 -0.003092 0.0 6.570087 0.213389 0.037161 3.109913 0.385161 0.076118 2.791812 0.385499 0.07372 6.889234 2.159677 5.528147 -19.639765 -4.982503 7.973424 -119.044501 -82.931925 -63.127163 -4.756442 6.735561 -5.511307 -19.914141 -15.873831 1.150927 8.843414 -3.027426 5.645735 -87.592088 88.100909 94.327747 -0.992809 -11.6774 6.102043 -20.626763 14.694529 -1.048042 9.313819 2.053701 -19.130486 
151.697906 93.144432 72.045036 90.062704 -4.033515 -87.972823 -175.036629 -3.189888 179.428318 -9.246603 -3.106867 -9.976439 76.633534 6.204511 -3.737148 21.454558 0.003115 1.7e-05 -176.856288 3.010299 176.542577 -9.17516 2.518293 4.271226 72.757422 -2.459628 2.219685 21.454553 -0.00309 1e-06 6.570081 0.213383 0.037161 3.10991 0.388875 0.076113 2.791801 0.389198 0.073724 6.877195 2.172577 5.519134 -19.62973 -4.982501 7.96569 -118.955422 -82.918859 -63.217758 -4.762274 6.722548 -5.552572 -19.899843 -15.856219 1.150941 8.857958 -3.000565 5.630634 -87.296737 88.101114 94.623597 -0.970061 -11.677401 6.090284 -20.601039 14.665212 -1.048039 9.327031 2.078503 -19.038406 
151.698502 93.146004 72.047913 90.062704 -4.014112 -87.955788 -175.056505 -3.189893 179.440749 -9.238214 -3.113401 -9.976431 76.625775 6.204506 -3.737153 21.45456 0.003122 2e-05 -176.869101 3.010292 176.52419 -9.161607 2.518286 4.292426 72.745975 -2.472577 2.226172 21.454553 -0.003097 -1e-06 6.570081 0.213388 0.037161 3.109912 0.396599 0.076121 2.791803 0.396919 0.073714 6.844171 2.19654 5.500707 -19.601449 -4.9825 7.948493 -118.789666 -82.894085 -63.386471 -4.771815 6.694151 -5.632988 -19.86887 -15.821273 1.150933 8.883188 -2.949437 5.596578 -86.671672 88.095356 95.250185 -0.927542 -11.67228 6.101312 -20.583579 14.614779 -1.048042 9.402749 2.09534 -18.884402 
151.699402 93.147598 72.050484 90.062697 -3.994608 -87.936281 -175.077419 -3.18989 179.457196 -9.231154 -3.120635 -9.97643 76.618269 6.204518 -3.73715 21.454558 0.003103 1.7e-05 -176.881163 3.010293 176.506759 -9.147496 2.518282 4.314587 72.734336 -2.486198 2.232781 21.454551 -0.003093 -2e-06 6.570089 0.213384 0.037161 3.109911 0.404865 0.072034 2.791805 0.405143 0.0696 6.819111 2.217009 5.485704 -19.574926 -4.974161 7.930688 -118.638036 -82.87423 -63.540471 -4.773721 6.66696 -5.711442 -19.835995 -15.789579 1.150928 8.904306 -2.906973 5.561131 -86.098414 88.075323 95.825758 -0.909577 -11.659461 6.104858 -20.558511 14.55944 -1.04804 9.439059 2.06972 -18.841089 
151.700302 93.149162 72.053543 90.062697 -3.975693 -87.914302 -175.099918 -3.189899 179.47781 -9.226803 -3.127923 -9.976423 76.611302 6.204519 -3.737155 21.454562 0.003115 1.8e-05 -176.893252 3.010298 176.495531 -9.135002 2.518282 4.334545 72.723148 -2.49838 2.23894 21.454551 -0.003093 1e-06 6.570085 0.213381 0.037157 3.109906 0.413113 0.0667 2.791806 0.413368 0.064191 6.845775 2.228513 5.476342 -19.591052 -4.94678 7.912264 -118.538575 -82.865426 -63.641278 -4.760509 6.643337 -5.774777 -19.805424 -15.766693 1.150939 8.920227 -2.884673 5.531253 -85.650408 88.063159 96.275075 -0.896029 -11.64475 6.075963 -20.50751 14.50629 -1.048043 9.418868 2.040169 -18.968559 
151.700607 93.150658 72.056808 90.062704 -3.95731 -87.893647 -175.122225 -3.189899 179.499789 -9.223204 -3.134935 -9.976434 76.604745 6.204517 -3.737152 21.45456 0.003109 1.7e-05 -176.906366 3.010295 176.490504 -9.125379 2.518284 4.35001 72.712889 -2.507612 2.244236 21.454551 -0.003095 1e-06 6.570078 0.213383 0.037154 3.109913 0.420424 0.061797 2.791806 0.420648 0.059255 6.913665 2.231783 5.454284 -19.659817 -4.918534 7.881905 -118.483073 -82.86826 -63.696889 -4.733184 6.629327 -5.816962 -19.77982 -15.757738 1.150938 8.929417 -2.894109 5.51302 -85.410443 88.061643 96.515299 -0.892003 -11.635861 5.994535 -20.40496 14.462022 -1.043974 9.299299 2.102335 -19.241198 
151.700302 93.152069 72.060638 90.06269 -3.940418 -87.875411 -175.143344 -3.189896 179.521796 -9.221403 -3.141598 -9.976424 76.598577 6.204522 -3.737151 21.45456 0.003107 1.8e-05 -176.919795 3.010295 176.490025 -9.118395 2.518275 4.361249 72.703245 -2.514112 2.248657 21.454553 -0.003098 0.0 6.570084 0.213393 0.037151 3.10991 0.42603 0.059538 2.791806 0.426248 0.056966 6.97449 2.24478 5.433665 -19.720655 -4.90185 7.858274 -118.399827 -82.87324 -63.780375 -4.710524 6.627667 -5.853611 -19.758621 -15.752274 1.150934 8.926117 -2.941343 5.507886 -85.458412 88.052074 96.46828 -0.930084 -11.623911 5.80397 -20.198842 14.402038 -1.037696 9.020798 2.363729 -19.622814 
151.699295 93.153351 72.065529 90.06271 -3.925814 -87.860371 -175.162633 -3.190226 179.542451 -9.220042 -3.147689 -9.97643 76.592758 6.204512 -3.735311 21.454558 0.003116 1.9e-05 -176.933578 3.010295 176.494001 -9.114685 2.518281 4.367935 72.69427 -2.517605 2.252241 21.454551 -0.00309 2e-06 6.570083 0.213745 0.037158 3.105756 0.42968 0.058166 2.787642 0.429891 0.055587 7.010642 2.275713 5.423528 -19.744793 -4.900119 7.851624 -118.241202 -82.879797 -63.939771 -4.697422 6.643954 -5.898168 -19.745139 -15.748978 1.150939 8.92018 -2.997614 5.483193 -85.767819 88.041056 96.159966 -0.969149 -11.618741 5.610051 -19.968671 14.331219 -1.030451 8.647492 2.70929 -20.028111 
151.697601 93.15448 72.072098 90.062697 -3.91351 -87.848459 -175.180678 -3.190658 179.561725 -9.219208 -3.153261 -9.980619 76.587157 6.204524 -3.733553 21.45456 0.003113 1.6e-05 -176.948495 3.010301 176.503126 -9.115072 2.518289 4.369585 72.686081 -2.517743 2.253935 21.45455 -0.003104 0.0 6.570084 0.214251 0.037163 3.103443 0.431559 0.056838 2.785348 0.431769 0.05423 7.038044 2.313906 5.420683 -19.757545 -4.907625 7.856451 -117.999291 -82.884537 -64.18283 -4.693127 6.681502 -5.955833 -19.743691 -15.746719 1.150937 8.91884 -3.056702 5.431213 -86.201946 88.032184 95.725654 -0.973458 -11.634301 5.533173 -19.822544 14.259841 -1.024217 8.349525 2.965388 -20.300922 
151.695297 93.155457 72.080803 90.062704 -3.9039 -87.840174 -175.197658 -3.191137 179.578815 -9.218991 -3.158192 -9.985503 76.582041 6.204519 -3.731831 21.454557 0.00311 1.8e-05 -176.964245 3.010297 176.518098 -9.119007 2.513787 4.365507 72.678144 -2.514133 2.255201 21.454555 -0.003095 -1e-06 6.570079 0.214872 0.037157 3.101842 0.433261 0.055573 2.783738 0.433471 0.052961 7.05714 2.343535 5.427782 -19.761901 -4.922454 7.873111 -117.772556 -82.880125 -64.411621 -4.698809 6.727122 -6.026026 -19.751978 -15.744897 1.150942 8.93364 -3.123049 5.378029 -86.570503 88.026324 95.357664 -0.963449 -11.664231 5.514676 -19.732517 14.18342 -1.018317 8.17173 3.154507 -20.254074 
